<?xml version="1.0" encoding="UTF-8" standalone="no"?>
<svg width="350px" height="131px" viewBox="0 0 350 131" version="1.1" xmlns="http://www.w3.org/2000/svg" xmlns:xlink="http://www.w3.org/1999/xlink">
    <!-- Generator: Sketch 44.1 (41455) - http://www.bohemiancoding.com/sketch -->
    <title>Scales Copy 3</title>
    <desc>Created with Sketch.</desc>
    <defs></defs>
    <g id="Page-1" stroke="none" stroke-width="1" fill="none" fill-rule="evenodd">
        <g id="Mobile" transform="translate(-181.000000, -329.000000)">
            <g id="Scales-Copy-3" transform="translate(356.000000, 394.500000) scale(-1, 1) translate(-356.000000, -394.500000) translate(181.000000, 329.000000)">
                <polyline id="Path-Copy" fill="#3B3B3B" points="2.22179708 57.647032 30.6969204 43.6233466 67.7958521 38.2443469 123.25609 32.6852874 135.461896 17.3196968 168.7136 0 168.713605 7.84314462 166.201117 12.3861172 168.176966 20.2257088 171.014412 23.3450104 158.660016 29.2964055 157.361929 35.1587191 199.630631 36.614347 206.815257 39.0403934 230.166317 32.6852874 247.821352 24.9816493 266.781203 32.685289 256.4994 44.3303119 274.607355 44.3303119 292.628547 36.614346 322.364428 44.3303119 349.888803 81.7761972 332.374875 102.979987 317.497731 119.492265 294.211357 124.607806 274.607346 112.754297 258.172444 106.109204 263.03188 113.250876 274.607355 121.875181 272.285841 128.085773 256.4994 130.28803 220.64458 109.526518 209.714316 105.307471 183.293556 105.792681 175.192745 105.792681 206.222652 118.703796 208.376723 124.607808 183.874873 120.240924 167.23303 110.205053 154.643473 108.520088 159.373023 115.313017 151.22706 113.250878 140.691867 108.736157 130.557387 110.656146 129.929038 119.492261 120.590341 114.450634 115.125209 107.489018 105.239059 107.974227 93.894913 104.390123 82.7426581 105.548181 72.8170007 102.979983 54.1678267 105.743402 11.8313987 87.919542 0 73.15288 7.85248181 72.2033103 21.1174193 71.886787 11.7599099 67.5199035 2.80311401 61.9324155"></polyline>
                <g id="Head" transform="translate(0.000000, 40.383459)">
                    <polygon id="Path-2" fill="#515151" points="72.7569099 62.7376734 85.0299846 51.6631179 92.5984865 56.6013644 97.5496648 54.9986114 103.208881 57.393456 115.233443 67.2360113 105.466465 67.6003606 93.8435903 63.8300812 82.8810843 65.2048757"></polygon>
                    <polygon id="Path-3" fill="#606060" points="72.3367907 62.7991454 65.8627597 53.09106 83.57069 24.5475858 101.240485 26.7925925 101.672045 34.2556711 90.6510655 38.9800464 87.4032451 43.1005879 87.1280384 52.9476255"></polygon>
                    <polygon id="Path-4" fill="#AAAAAA" points="66.9083069 54.4787187 59.0175627 43.3844308 80.6226697 22.1443166 83.6818483 24.4644914"></polygon>
                    <polygon id="Path-7" fill="#E9E9E9" points="59.2802736 43.5176262 55.0501073 33.6624943 52.5161078 14.9760241 52.9097388 28.9490507 49.6246969 35.7617187 48.3781988 45.6760612 45.8072965 47.2554711 38.5661265 42.4201636 21.0809836 31.4537991 2.74297357 21.6613204 2.51472227 17.424316 31.1506929 3.27228047 48.8955229 0.789563859 67.666117 8.42980408 77.1522136 19.9331954"></polygon>
                    <polygon id="Path-12" fill="#C6C6C6" points="52.4590198 14.5270661 68.3940516 8.6690378 82.2088019 21.3355169 61.4497653 47.9329436 54.569462 38.9451799"></polygon>
                    <polygon id="Path-6" fill="#919191" points="81.2156563 22.9944403 68.3730243 8.73238804 89.168165 6.5248128 103.800894 22.3849297 101.268056 26.82578 83.730663 24.6064322"></polygon>
                    <polygon id="Path-9" fill="#D8D8D8" points="38.7641094 53.5663729 51.3104599 41.7624868 59.5668172 43.4958821 52.8401812 52.6126572"></polygon>
                    <polygon id="Path-13" fill="#E7E7E7" points="39.3340373 53.3459899 34.7723355 39.2788675 51.2931113 42.1044455"></polygon>
                    <polygon id="Path-14" fill="#E3E3E3" points="59.1737706 43.8805004 50.1277818 48.290941 11.1424247 26.9368242 2.92166577 21.651677 1.81188428 17.3549364 31.2333366 2.79077693 50.1277818 0.274061243 68.6927695 8.70374834 55.666459 18.5764324"></polygon>
                    <polygon id="Path-11" fill="#919191" points="7.28801232 41.9579897 19.2462742 44.0638452 38.9615636 53.0898197 61.9530887 62.6504881 54.3372238 65.4438999 11.7147806 47.6291299"></polygon>
                    <polygon id="Path-5" fill="#AAAAAA" points="7.94887103 42.3980606 3.24800888 37.1468166 0.0013334154 32.6472829 8.93651201 31.5175268 21.4170307 31.452792 50.1575274 48.0641718 39.5837045 53.3346008 19.1739016 44.3888368"></polygon>
                    <polygon id="Path-8" fill="#7C7C7C" points="59.0237524 43.5177633 39.4174157 53.1969792 54.0538245 65.451586 72.2595401 62.8279382 68.9211709 50.6429689"></polygon>
                </g>
                <polygon id="Path-22" fill="#1F1F1F" points="203.690189 39.2147352 221.306043 35.0559121 236.534543 47.4273854 221.939421 53.3882293 235.835695 65.2516279 222.718964 68.3271534 232.177018 78.1274189 218.484765 85.8952299 248.671284 125.858797 221.939421 110.706681 221.306042 109.554534 194.79091 91.7302918 194.672151 53.4879346"></polygon>
                <polygon id="Path-21" fill="#3D3D3D" points="181.71179 35.7382843 200.061102 36.3759588 206.919405 39.1100056 217.147549 44.593969 202.906398 53.3367338 213.302543 62.5358581 200.80891 68.6902268 211.90851 75.986084 196.900699 85.1604447 222.891495 110.619707 209.870458 105.828611 197.657873 105.828611 178.809861 103.118843 171.06952 84.518947 177.598421 42.7673515"></polygon>
                <polygon id="Path-20" fill="#606060" points="158.092791 34.8248123 184.147198 36.0286097 195.336872 46.9715636 179.170971 52.6404394 191.365635 62.4502976 178.500187 68.8615728 190.574304 75.0534582 175.707197 85.2981783 191.165372 103.462479 199.621499 105.828254 180.624007 105.828254 175.486779 105.828254 151.985738 87.9514237"></polygon>
                <polyline id="Path-19" fill="#7C7C7C" points="144.79689 35.4493017 158.141247 34.8351305 175.390667 45.3169849 160.588538 51.1115562 174.033614 62.4354481 162.793749 68.3003376 171.777159 75.7505008 160.292566 84.0204489 176.150476 105.762998 162.42268 102.046817 148.716972 95.777821 138.277557 79.1871889 143.017525 54.9541314"></polyline>
                <polygon id="Path-18" fill="#919191" points="125.774289 32.3286001 155.111732 37.4208801 144.464695 51.7830974 158.456656 61.5996413 144.77922 67.5749036 156.816884 75.588502 144.464695 82.8891278 156.037638 98.7516556 148.360038 98.0867486 129.656381 90.3900268"></polygon>
                <polygon id="Path-17" fill="#AAAAAA" points="124.222867 31.3574976 143.165069 42.6395547 130.734249 53.1187388 141.594209 61.0246347 130.53016 67.5757937 140.227437 75.1461208 129.666099 81.9910138 140.875041 94.5209954 110.161992 85.9920273 106.66335 33.9469625"></polygon>
                <polygon id="Path-16" fill="#C6C6C6" points="67.56634 38.1459161 106.91867 33.8444457 123.372941 44.2096966 110.25741 53.7070969 123.130863 60.9988217 112.569525 69.9051936 124.694655 75.8003465 113.998141 83.5451338 124.424304 90.2582916 110.055972 86.6916484 102.503829 81.2130636 101.0973 72.0699244 101.0973 61.718025 89.1630059 47.7896914 74.9139464 48.6691132 68.304496 49.1755819 48.3347853 40.9341171"></polygon>
                <ellipse id="Oval" fill="#FFFFFF" cx="27.8631285" cy="58.6052632" rx="4.39944134" ry="4.43233083"></ellipse>
            </g>
        </g>
    </g>
</svg>