<?xml version="1.0" encoding="UTF-8" standalone="no"?>
<svg width="452px" height="198px" viewBox="0 0 452 198" version="1.1" xmlns="http://www.w3.org/2000/svg" xmlns:xlink="http://www.w3.org/1999/xlink">
    <!-- Generator: Sketch 44.1 (41455) - http://www.bohemiancoding.com/sketch -->
    <title>Group</title>
    <desc>Created with Sketch.</desc>
    <defs></defs>
    <g id="Page-1" stroke="none" stroke-width="1" fill="none" fill-rule="evenodd">
        <g id="Mobile" transform="translate(-79.000000, -265.000000)">
            <g id="Group" transform="translate(79.000000, 265.000000)">
                <g id="Scales-Copy-3" transform="translate(277.000000, 129.500000) scale(-1, 1) translate(-277.000000, -129.500000) translate(102.000000, 64.000000)">
                    <polyline id="Path-Copy" fill="#3B3B3B" points="2.22179708 57.647032 30.6969204 43.6233466 67.7958521 38.2443469 123.25609 32.6852874 135.461896 17.3196968 168.7136 0 168.713605 7.84314462 166.201117 12.3861172 168.176966 20.2257088 171.014412 23.3450104 158.660016 29.2964055 157.361929 35.1587191 199.630631 36.614347 206.815257 39.0403934 230.166317 32.6852874 247.821352 24.9816493 266.781203 32.685289 256.4994 44.3303119 274.607355 44.3303119 292.628547 36.614346 322.364428 44.3303119 349.888803 81.7761972 332.374875 102.979987 317.497731 119.492265 294.211357 124.607806 274.607346 112.754297 258.172444 106.109204 263.03188 113.250876 274.607355 121.875181 272.285841 128.085773 256.4994 130.28803 220.64458 109.526518 209.714316 105.307471 183.293556 105.792681 175.192745 105.792681 206.222652 118.703796 208.376723 124.607808 183.874873 120.240924 167.23303 110.205053 154.643473 108.520088 159.373023 115.313017 151.22706 113.250878 140.691867 108.736157 130.557387 110.656146 129.929038 119.492261 120.590341 114.450634 115.125209 107.489018 105.239059 107.974227 93.894913 104.390123 82.7426581 105.548181 72.8170007 102.979983 54.1678267 105.743402 11.8313987 87.919542 0 73.15288 7.85248181 72.2033103 21.1174193 71.886787 11.7599099 67.5199035 2.80311401 61.9324155"></polyline>
                    <g id="Head" transform="translate(0.000000, 40.383459)">
                        <polygon id="Path-2" fill="#515151" points="72.7569099 62.7376734 85.0299846 51.6631179 92.5984865 56.6013644 97.5496648 54.9986114 103.208881 57.393456 115.233443 67.2360113 105.466465 67.6003606 93.8435903 63.8300812 82.8810843 65.2048757"></polygon>
                        <polygon id="Path-3" fill="#606060" points="72.3367907 62.7991454 65.8627597 53.09106 83.57069 24.5475858 101.240485 26.7925925 101.672045 34.2556711 90.6510655 38.9800464 87.4032451 43.1005879 87.1280384 52.9476255"></polygon>
                        <polygon id="Path-4" fill="#AAAAAA" points="66.9083069 54.4787187 59.0175627 43.3844308 80.6226697 22.1443166 83.6818483 24.4644914"></polygon>
                        <polygon id="Path-7" fill="#E9E9E9" points="59.2802736 43.5176262 55.0501073 33.6624943 52.5161078 14.9760241 52.9097388 28.9490507 49.6246969 35.7617187 48.3781988 45.6760612 45.8072965 47.2554711 38.5661265 42.4201636 21.0809836 31.4537991 2.74297357 21.6613204 2.51472227 17.424316 31.1506929 3.27228047 48.8955229 0.789563859 67.666117 8.42980408 77.1522136 19.9331954"></polygon>
                        <polygon id="Path-12" fill="#C6C6C6" points="52.4590198 14.5270661 68.3940516 8.6690378 82.2088019 21.3355169 61.4497653 47.9329436 54.569462 38.9451799"></polygon>
                        <polygon id="Path-6" fill="#919191" points="81.2156563 22.9944403 68.3730243 8.73238804 89.168165 6.5248128 103.800894 22.3849297 101.268056 26.82578 83.730663 24.6064322"></polygon>
                        <polygon id="Path-9" fill="#D8D8D8" points="38.7641094 53.5663729 51.3104599 41.7624868 59.5668172 43.4958821 52.8401812 52.6126572"></polygon>
                        <polygon id="Path-13" fill="#E7E7E7" points="39.3340373 53.3459899 34.7723355 39.2788675 51.2931113 42.1044455"></polygon>
                        <polygon id="Path-14" fill="#E3E3E3" points="59.1737706 43.8805004 50.1277818 48.290941 11.1424247 26.9368242 2.92166577 21.651677 1.81188428 17.3549364 31.2333366 2.79077693 50.1277818 0.274061243 68.6927695 8.70374834 55.666459 18.5764324"></polygon>
                        <polygon id="Path-11" fill="#919191" points="7.28801232 41.9579897 19.2462742 44.0638452 38.9615636 53.0898197 61.9530887 62.6504881 54.3372238 65.4438999 11.7147806 47.6291299"></polygon>
                        <polygon id="Path-5" fill="#AAAAAA" points="7.94887103 42.3980606 3.24800888 37.1468166 0.0013334154 32.6472829 8.93651201 31.5175268 21.4170307 31.452792 50.1575274 48.0641718 39.5837045 53.3346008 19.1739016 44.3888368"></polygon>
                        <polygon id="Path-8" fill="#7C7C7C" points="59.0237524 43.5177633 39.4174157 53.1969792 54.0538245 65.451586 72.2595401 62.8279382 68.9211709 50.6429689"></polygon>
                    </g>
                    <polygon id="Path-22" fill="#1F1F1F" points="203.690189 39.2147352 221.306043 35.0559121 236.534543 47.4273854 221.939421 53.3882293 235.835695 65.2516279 222.718964 68.3271534 232.177018 78.1274189 218.484765 85.8952299 248.671284 125.858797 221.939421 110.706681 221.306042 109.554534 194.79091 91.7302918 194.672151 53.4879346"></polygon>
                    <polygon id="Path-21" fill="#3D3D3D" points="181.71179 35.7382843 200.061102 36.3759588 206.919405 39.1100056 217.147549 44.593969 202.906398 53.3367338 213.302543 62.5358581 200.80891 68.6902268 211.90851 75.986084 196.900699 85.1604447 222.891495 110.619707 209.870458 105.828611 197.657873 105.828611 178.809861 103.118843 171.06952 84.518947 177.598421 42.7673515"></polygon>
                    <polygon id="Path-20" fill="#606060" points="158.092791 34.8248123 184.147198 36.0286097 195.336872 46.9715636 179.170971 52.6404394 191.365635 62.4502976 178.500187 68.8615728 190.574304 75.0534582 175.707197 85.2981783 191.165372 103.462479 199.621499 105.828254 180.624007 105.828254 175.486779 105.828254 151.985738 87.9514237"></polygon>
                    <polyline id="Path-19" fill="#7C7C7C" points="144.79689 35.4493017 158.141247 34.8351305 175.390667 45.3169849 160.588538 51.1115562 174.033614 62.4354481 162.793749 68.3003376 171.777159 75.7505008 160.292566 84.0204489 176.150476 105.762998 162.42268 102.046817 148.716972 95.777821 138.277557 79.1871889 143.017525 54.9541314"></polyline>
                    <polygon id="Path-18" fill="#919191" points="125.774289 32.3286001 155.111732 37.4208801 144.464695 51.7830974 158.456656 61.5996413 144.77922 67.5749036 156.816884 75.588502 144.464695 82.8891278 156.037638 98.7516556 148.360038 98.0867486 129.656381 90.3900268"></polygon>
                    <polygon id="Path-17" fill="#AAAAAA" points="124.222867 31.3574976 143.165069 42.6395547 130.734249 53.1187388 141.594209 61.0246347 130.53016 67.5757937 140.227437 75.1461208 129.666099 81.9910138 140.875041 94.5209954 110.161992 85.9920273 106.66335 33.9469625"></polygon>
                    <polygon id="Path-16" fill="#C6C6C6" points="67.56634 38.1459161 106.91867 33.8444457 123.372941 44.2096966 110.25741 53.7070969 123.130863 60.9988217 112.569525 69.9051936 124.694655 75.8003465 113.998141 83.5451338 124.424304 90.2582916 110.055972 86.6916484 102.503829 81.2130636 101.0973 72.0699244 101.0973 61.718025 89.1630059 47.7896914 74.9139464 48.6691132 68.304496 49.1755819 48.3347853 40.9341171"></polygon>
                    <ellipse id="Oval" fill="#FFFFFF" cx="27.8631285" cy="58.6052632" rx="4.39944134" ry="4.43233083"></ellipse>
                </g>
                <g id="Scales-Copy-3" transform="translate(139.500000, 51.500000) scale(-1, 1) translate(-139.500000, -51.500000) translate(2.000000, 0.000000)">
                    <polyline id="Path-Copy" fill="#3B3B3B" points="1.74569771 45.3255289 24.1190089 34.2992725 53.2681695 30.0699827 96.8440706 25.6991191 106.434347 13.6177769 132.560686 0 132.560689 6.1667473 130.586592 9.73870282 132.139045 15.9026565 134.368466 18.3552372 124.661441 23.0345784 123.641516 27.6438784 156.852639 28.7883797 162.497702 30.6958818 180.844963 25.6991191 194.716776 19.6420602 209.613802 25.6991204 201.535243 34.8551308 215.762922 34.8551308 229.92243 28.7883789 253.286336 34.8551308 274.912631 64.2973153 261.151688 80.9689972 249.462503 93.9519333 231.166066 97.9740769 215.762915 88.6541416 202.849778 83.4293741 206.667905 89.0445815 215.762922 95.8255237 213.938875 100.708661 201.535243 102.440207 173.363598 86.1162696 164.775534 82.7990042 144.016365 83.1805046 137.651442 83.1805046 162.032084 93.3319925 163.724568 97.9740777 144.473114 94.5405739 131.39738 86.6497741 121.505586 85.3249543 125.221661 90.6659602 118.821262 89.0445834 110.54361 85.4948412 102.580804 87.0044503 102.087101 93.9519307 94.7495537 89.9879028 90.4555217 84.5142659 82.6878321 84.8957663 73.7745745 82.07773 65.0120885 82.9882642 57.2133577 80.9689944 42.5604353 83.1417585 9.29609896 69.1275789 0 57.5171499 6.16980713 56.7705417 16.592258 56.5216723 9.23992918 53.0881684 2.20244672 48.6949526"></polyline>
                    <g id="Head" transform="translate(0.000000, 31.751880)">
                        <polygon id="Path-2" fill="#515151" points="57.1661435 49.3280944 66.8092736 40.6206194 72.7559537 44.5033628 76.6461652 43.243183 81.0926919 45.1261524 90.5405623 52.8649554 82.8665084 53.1514286 73.7342495 50.1870104 65.1208519 51.2679557"></polygon>
                        <polygon id="Path-3" fill="#606060" points="56.8360498 49.3764273 51.7493112 41.7433525 65.662685 19.3007736 79.5460956 21.0659315 79.8851782 26.9338483 71.2258372 30.6484335 68.6739783 33.8882485 68.4577445 41.6305758"></polygon>
                        <polygon id="Path-4" fill="#AAAAAA" points="52.5708126 42.8344124 46.3709422 34.1114227 63.3463833 17.4111803 65.7500237 19.2354398"></polygon>
                        <polygon id="Path-7" fill="#E9E9E9" points="46.5773578 34.2161489 43.2536557 26.4674574 41.2626562 11.7750419 41.5719377 22.7614673 38.9908333 28.1179926 38.0114419 35.913239 35.9914472 37.155065 30.3019566 33.3532584 16.56363 24.7308497 2.15519352 17.0314199 1.97585321 13.7000347 24.4755444 2.57286174 38.4179108 0.620802118 53.1662348 6.6280139 60.6195964 15.6726651"></polygon>
                        <polygon id="Path-12" fill="#C6C6C6" points="41.2178012 11.4220444 53.7381834 6.81611369 64.5926301 16.7752537 48.2819584 37.6877343 42.8760058 30.6210193"></polygon>
                        <polygon id="Path-6" fill="#919191" points="63.8123014 18.0795981 53.7216619 6.86592342 70.0607011 5.13019632 81.5578456 17.6003646 79.5677583 21.0920255 65.7883781 19.3470421"></polygon>
                        <polygon id="Path-9" fill="#D8D8D8" points="30.4575146 42.1170718 40.3153613 32.8361538 46.8024992 34.1990523 41.5172852 41.3672037"></polygon>
                        <polygon id="Path-13" fill="#E7E7E7" points="30.905315 41.9437936 27.3211208 30.8833844 40.3017303 33.105022"></polygon>
                        <polygon id="Path-14" fill="#E3E3E3" points="46.4936769 34.5014621 39.3861143 37.9692131 8.75476225 21.1793351 2.29559454 17.0238376 1.42362337 13.6454844 24.5404787 2.19427499 39.3861143 0.215483267 53.9728903 6.84340518 43.7379321 14.6058972"></polygon>
                        <polygon id="Path-11" fill="#919191" points="5.7262954 32.9898697 15.1220726 34.6456187 30.6126571 41.7423773 48.6774268 49.2595441 42.693533 51.4558908 9.20447044 37.4488579"></polygon>
                        <polygon id="Path-5" fill="#AAAAAA" points="6.24554152 33.3358797 2.55200698 29.207039 0.00104768353 25.6692377 7.02154515 24.7809562 16.827667 24.7300578 39.4094858 37.7909137 31.1014821 41.9348388 15.0652084 34.9011465"></polygon>
                        <polygon id="Path-8" fill="#7C7C7C" points="46.3758055 34.2162567 30.9708267 41.8266325 42.4708621 51.461934 56.7753529 49.3990659 54.1523486 39.8185176"></polygon>
                    </g>
                    <polygon id="Path-22" fill="#1F1F1F" points="160.042291 30.8329598 173.883319 27.5630454 185.84857 37.2902343 174.380974 41.9770047 185.299475 51.304715 174.993472 53.7228763 182.4248 61.4284286 171.666601 67.5359441 195.38458 98.9576797 174.380974 87.0441841 173.883319 86.1382979 153.05 72.1238172 152.95669 42.055399"></polygon>
                    <polygon id="Path-21" fill="#3D3D3D" points="142.773549 28.099567 157.190866 28.6009447 162.579533 30.7506151 170.615931 35.0624337 159.426456 41.9365159 167.594856 49.1694152 157.778429 54.0083463 166.499543 59.7447836 154.707692 66.9582122 175.129032 86.9758002 164.898217 83.2087552 155.302614 83.2087552 140.493462 81.0781742 134.411765 66.4538285 139.541616 33.6262382"></polygon>
                    <polygon id="Path-20" fill="#606060" points="124.215764 27.3813409 144.687084 28.3278382 153.478971 36.9318401 140.777192 41.3890478 150.358713 49.1021424 140.250147 54.1430687 149.736953 59.0114976 138.055655 67.0665066 150.201364 81.348361 156.845464 83.2084742 141.918862 83.2084742 137.882469 83.2084742 119.417365 69.1526461"></polygon>
                    <polyline id="Path-19" fill="#7C7C7C" points="113.768985 27.8723517 124.253837 27.3894537 137.806953 35.6309118 126.176708 40.1869488 136.740697 49.0904669 127.909374 53.7017922 134.967768 59.559554 125.944159 66.0618797 138.403945 83.1571663 127.61782 80.2352839 116.849049 75.3062257 108.646652 62.2616829 112.370912 43.2082102"></polyline>
                    <polygon id="Path-18" fill="#919191" points="98.822656 25.4186703 121.873504 29.422524 113.507975 40.7149544 124.501659 48.4333058 113.755101 53.1314127 123.213266 59.432181 113.507974 65.1723677 122.601001 77.6444315 116.568602 77.121642 101.872871 71.0700211"></polygon>
                    <polygon id="Path-17" fill="#AAAAAA" points="97.6036809 24.6551317 112.48684 33.5257567 102.719767 41.7651152 111.252593 47.9812013 102.559412 53.1321126 110.178701 59.0843545 101.880507 64.4662169 110.687532 74.3180346 86.5558509 67.612052 83.8069182 26.6911232"></polygon>
                    <polygon id="Path-16" fill="#C6C6C6" points="53.0878386 29.9925906 84.0075265 26.6105184 96.9358824 34.7602958 86.6308221 42.2277174 96.7456779 47.9609056 88.4474838 54.9636255 97.9743715 59.5987458 89.5699683 65.6881587 97.7619533 70.966443 86.4725497 68.1621357 80.5387231 63.8545462 79.433593 56.6656657 79.433593 48.5263861 70.0566475 37.5751008 58.8609578 38.2665547 53.6678183 38.6647705 37.9773313 32.1848402"></polygon>
                    <ellipse id="Oval" fill="#FFFFFF" cx="21.8924581" cy="46.0789474" rx="3.45670391" ry="3.48496241"></ellipse>
                </g>
                <g id="Scales-Copy-3" transform="translate(104.000000, 159.000000) scale(-1, 1) translate(-104.000000, -159.000000) translate(0.000000, 120.000000)">
                    <polyline id="Path-Copy" fill="#3B3B3B" points="1.32038226 34.324187 18.2427412 25.9742064 40.2901064 22.7714432 73.2493334 19.4614689 80.5030694 10.3124912 100.264083 0 100.264085 4.66996397 98.7709497 7.37494 99.9451686 12.0427884 101.631422 13.9000826 94.2893808 17.4436613 93.5179466 20.9341992 118.637632 21.8009089 122.907353 23.2454251 136.784554 19.4614689 147.276689 14.8745698 158.544258 19.4614698 152.433929 26.3951476 163.195228 26.3951476 173.904965 21.8009083 191.576574 26.3951476 207.933917 48.6911708 197.52564 61.316328 188.684366 71.148066 174.845606 74.1939611 163.195223 67.1361461 153.428196 63.179526 156.316088 67.431819 163.195228 72.5669014 161.815586 76.2648111 152.433929 77.5760792 131.125922 65.2142624 124.630222 62.7021585 108.928742 62.9910618 104.114545 62.9910618 122.555176 70.6785963 123.83531 74.1939618 109.27421 71.5938327 99.3842004 65.6182756 91.9024069 64.6150139 94.7131106 68.6596592 89.8720816 67.4318205 83.6111665 64.7436662 77.5883899 65.8868653 77.214971 71.148064 71.665117 68.1461789 68.4172673 64.0010946 62.5420693 64.2899978 55.8004055 62.1559509 49.1727797 62.8454816 43.2741033 61.3163258 32.1911656 62.96172 7.03123121 52.3490403 0 43.5566766 4.66661776 42.991284 12.5497806 42.8028198 6.98874643 40.2026907 1.66585061 36.8757894"></polyline>
                    <g id="Head" transform="translate(0.000000, 24.045113)">
                        <polygon id="Path-2" fill="#515151" points="43.2383922 37.3552559 50.5321051 30.7612458 55.0299577 33.7015757 57.9723722 32.7472648 61.3355633 34.1732028 68.4815889 40.0336556 62.6772136 40.2505964 55.7699051 38.0056972 49.2550444 38.8242771"></polygon>
                        <polygon id="Path-3" fill="#606060" points="42.9887213 37.3918576 39.1412972 31.6114709 49.6648672 14.6161198 60.1657741 15.9528414 60.4222439 20.3965065 53.8726332 23.2094933 51.9425 25.6629455 51.7789485 31.5260671"></polygon>
                        <polygon id="Path-4" fill="#AAAAAA" points="39.762651 32.4377104 35.0732944 25.8319512 47.9129009 13.1851656 49.730927 14.5666437"></polygon>
                        <polygon id="Path-7" fill="#E9E9E9" points="35.2294197 25.9112584 32.7154923 20.0433172 31.2095727 8.91702201 31.4435019 17.2368393 29.4912485 21.2932371 28.7504724 27.1964334 27.2226219 28.1368454 22.919298 25.2578073 12.5281274 18.7282163 1.63011001 12.8975801 1.49446352 10.3747835 18.5124118 1.94838074 29.0579107 0.470121992 40.2130067 5.01927266 45.8504584 11.8686202"></polygon>
                        <polygon id="Path-12" fill="#C6C6C6" points="31.175646 8.6497035 40.6456078 5.16171717 48.8555166 12.7035902 36.5187177 28.540226 32.4298517 23.1887331"></polygon>
                        <polygon id="Path-6" fill="#919191" points="48.2653043 13.6913462 40.6331116 5.19943716 52.9913666 3.88500304 61.6873887 13.3284314 60.182159 15.9726019 49.7599369 14.6511581"></polygon>
                        <polygon id="Path-9" fill="#D8D8D8" points="23.0369565 31.8944816 30.4930733 24.8662135 35.3997085 25.8983115 31.4021648 31.3266203"></polygon>
                        <polygon id="Path-13" fill="#E7E7E7" points="23.3756564 31.7632612 20.6647022 23.3874173 30.4827633 25.0698225"></polygon>
                        <polygon id="Path-14" fill="#E3E3E3" points="35.1661265 26.1273208 29.7902246 28.7533847 6.62178381 16.0387197 1.73630423 12.8918382 1.07677695 10.3334736 18.5615257 1.66168397 29.7902246 0.163181504 40.8231316 5.18238451 33.0817814 11.0607765"></polygon>
                        <polygon id="Path-11" fill="#919191" points="4.33116161 24.9826198 11.4377858 26.236488 23.1543007 31.6107323 36.8178355 37.303344 32.2918358 38.9665969 6.96192673 28.3593293"></polygon>
                        <polygon id="Path-5" fill="#AAAAAA" points="4.7239005 25.2446468 1.93024528 22.1179519 0.000792429722 19.4388402 5.31084142 18.766161 12.7278354 18.7276166 29.807902 28.6183618 23.5240301 31.7564799 11.3947758 26.4299944"></polygon>
                        <polygon id="Path-8" fill="#7C7C7C" points="35.0769729 25.91134 23.4252071 31.6745372 32.1234157 38.9711733 42.9428124 37.4090014 40.9588673 30.1538288"></polygon>
                    </g>
                    <polygon id="Path-22" fill="#1F1F1F" points="121.050169 23.3492317 131.51902 20.8729858 140.5691 28.2392065 131.895427 31.7884113 140.153784 38.8521143 132.358699 40.6833432 137.979485 46.5186158 129.842375 51.1437247 147.781791 74.9388254 131.895427 65.916955 131.519019 65.2309441 115.761455 54.6180363 115.690878 31.8477779"></polygon>
                    <polygon id="Path-21" fill="#3D3D3D" points="107.988721 21.2792838 118.893455 21.6589678 122.969247 23.2868736 129.047686 26.5521342 120.584374 31.7577499 126.762654 37.2350911 119.337866 40.8995243 125.9342 45.2436226 117.015272 50.706219 132.461231 65.8651691 124.723015 63.0124554 117.46525 63.0124554 106.264146 61.3990057 101.664172 50.3242585 105.544204 25.4645299"></polygon>
                    <polygon id="Path-20" fill="#606060" points="93.9522872 20.7353844 109.436049 21.4521493 116.085913 27.9678013 106.478749 31.3431624 113.725863 37.1841467 106.080111 41.0015472 113.255586 44.6883186 104.420277 50.7882283 113.60685 61.6036132 118.632205 63.0122426 107.342267 63.0122426 104.289286 63.0122426 90.3229527 52.3680233"></polygon>
                    <polyline id="Path-19" fill="#7C7C7C" points="86.0507232 21.1072178 93.9810842 20.7415281 104.232168 26.9826322 95.4354737 30.432835 103.42569 37.175305 96.7459995 40.6673766 102.084712 45.1033516 95.2595819 50.0274429 104.683711 62.9733881 96.5254783 60.7607004 88.3803718 57.0280156 82.1763765 47.1496239 84.9932717 32.7207805"></polyline>
                    <polygon id="Path-18" fill="#919191" points="74.7458634 19.2490901 92.1806864 22.2811347 85.8533044 30.8326839 94.1685272 36.677649 86.0402222 40.2354388 93.1940337 45.0068943 85.8533043 49.3538318 92.7309392 58.7986957 88.1682514 58.4027968 77.0529348 53.820016"></polygon>
                    <polygon id="Path-17" fill="#AAAAAA" points="73.823875 18.6708764 85.0809552 25.3884371 77.6934963 31.6279513 84.1474156 36.3352787 77.5722097 40.2359688 83.3351626 44.7434917 77.0587104 48.8190769 83.7200246 56.2796767 65.4676981 51.2013598 63.3885054 20.2126952"></polygon>
                    <polygon id="Path-16" fill="#C6C6C6" points="40.1537106 22.7128356 63.5402382 20.1516547 73.3187765 26.3233308 65.5244036 31.9782714 73.1749127 36.3199091 66.8984604 41.6229397 74.1042519 45.1330308 67.7474669 49.7444308 73.9435865 53.7415782 65.4046921 51.617928 60.9165614 48.35587 60.0806812 42.9118634 60.0806812 36.748137 52.9883007 28.4549307 44.5202881 28.978556 40.5923862 29.2801175 28.7246724 24.3729858"></polygon>
                    <ellipse id="Oval" fill="#FFFFFF" cx="16.5586592" cy="34.8947368" rx="2.61452514" ry="2.63909774"></ellipse>
                </g>
            </g>
        </g>
    </g>
</svg>